<?xml version="1.0" encoding="UTF-8" standalone="no"?>
<!-- Created with Inkscape (http://www.inkscape.org/) -->

<svg
   xmlns:dc="http://purl.org/dc/elements/1.1/"
   xmlns:cc="http://creativecommons.org/ns#"
   xmlns:rdf="http://www.w3.org/1999/02/22-rdf-syntax-ns#"
   xmlns:svg="http://www.w3.org/2000/svg"
   xmlns="http://www.w3.org/2000/svg"
   xmlns:sodipodi="http://sodipodi.sourceforge.net/DTD/sodipodi-0.dtd"
   xmlns:inkscape="http://www.inkscape.org/namespaces/inkscape"
   width="148mm"
   height="210mm"
   viewBox="0 0 524.40946 744.09448"
   id="svg2"
   version="1.1"
   inkscape:version="0.91 r13725"
   sodipodi:docname="modele.svg">
  <sodipodi:namedview
     id="base"
     pagecolor="#ffffff"
     bordercolor="#666666"
     borderopacity="1.0"
     inkscape:pageopacity="0.0"
     inkscape:pageshadow="2"
     inkscape:zoom="0.98994949"
     inkscape:cx="118.67743"
     inkscape:cy="362.7873"
     inkscape:document-units="mm"
     inkscape:current-layer="layer4"
     showgrid="false"
     units="mm"
     inkscape:window-width="1600"
     inkscape:window-height="1141"
     inkscape:window-x="0"
     inkscape:window-y="27"
     inkscape:window-maximized="1"
     showguides="true"
     inkscape:guide-bbox="true"
     inkscape:snap-bbox="true"
     inkscape:bbox-paths="false"
     inkscape:bbox-nodes="true"
     borderlayer="true">
    <sodipodi:guide
       inkscape:color="rgb(0,0,255)"
       inkscape:label=""
       id="guide7382"
       orientation="1,0"
       position="-7.0866147,0" />
    <sodipodi:guide
       inkscape:color="rgb(0,0,255)"
       inkscape:label=""
       id="guide7384"
       orientation="1,0"
       position="531.4961,0" />
    <sodipodi:guide
       inkscape:color="rgb(0,0,255)"
       inkscape:label=""
       id="guide7386"
       orientation="0,1"
       position="0,-7.0866142" />
    <sodipodi:guide
       inkscape:color="rgb(0,0,255)"
       inkscape:label=""
       id="guide7388"
       orientation="0,1"
       position="0,751.1811" />
    <sodipodi:guide
       inkscape:color="rgb(0,0,255)"
       inkscape:label=""
       id="guide7390"
       orientation="1,0"
       position="35.433073,0" />
    <sodipodi:guide
       inkscape:color="rgb(0,0,255)"
       inkscape:label=""
       id="guide7392"
       orientation="0,1"
       position="0,708.66142" />
    <sodipodi:guide
       inkscape:color="rgb(0,0,255)"
       inkscape:label=""
       id="guide7394"
       orientation="1,0"
       position="488.97641,0" />
    <sodipodi:guide
       inkscape:color="rgb(0,0,255)"
       inkscape:label=""
       id="guide7396"
       orientation="0,1"
       position="0,35.433071" />
  </sodipodi:namedview>
  <defs
     id="defs4" />
  <metadata
     id="metadata7">
    <rdf:RDF>
      <cc:Work
         rdf:about="">
        <dc:format>image/svg+xml</dc:format>
        <dc:type
           rdf:resource="http://purl.org/dc/dcmitype/StillImage" />
        <dc:title />
      </cc:Work>
    </rdf:RDF>
  </metadata>
  <g
     inkscape:groupmode="layer"
     id="layer4"
     inkscape:label="bg">
    <rect
       style="opacity:1;fill:#ffffff;fill-opacity:1;stroke:none;stroke-width:3.54330707;stroke-linecap:round;stroke-linejoin:round;stroke-miterlimit:4;stroke-dasharray:none;stroke-dashoffset:4.0999999;stroke-opacity:1"
       id="bg"
       width="538.58282"
       height="758.26782"
       x="-7.0866981"
       y="-7.0866451" />
  </g>
  <g
     style="display:inline"
     inkscape:label="artwork"
     inkscape:groupmode="layer"
     id="layer1"
     transform="translate(0,-308.26761)" />
  <g
     transform="translate(0,-70.866142)"
     inkscape:label="bubbles"
     id="layer2"
     inkscape:groupmode="layer" />
  <g
     transform="translate(0,-70.866142)"
     inkscape:label="text"
     id="layer3"
     inkscape:groupmode="layer" />
  <g
     sodipodi:insensitive="true"
     inkscape:groupmode="layer"
     inkscape:label="printing marks"
     id="printing-marks">
    <g
       inkscape:label="CropMarks"
       id="CropMarks">
      <path
         style="stroke:#000000;stroke-width:0.25;fill:none"
         id="cropTL1"
         d="M 0,-7.0866141732 L 0,-42.5196850392" />
      <path
         style="stroke:#000000;stroke-width:0.25;fill:none"
         id="cropTL2"
         d="M -7.0866141732,0 L -42.5196850392,0" />
      <path
         style="stroke:#000000;stroke-width:0.25;fill:none"
         id="cropTR1"
         d="M 524.409448817,-7.0866141732 L 524.409448817,-42.5196850392" />
      <path
         style="stroke:#000000;stroke-width:0.25;fill:none"
         id="cropTR2"
         d="M 531.49606299,0 L 566.929133856,0" />
      <path
         style="stroke:#000000;stroke-width:0.25;fill:none"
         id="cropBL1"
         d="M 0,751.181102359 L 0,786.614173225" />
      <path
         style="stroke:#000000;stroke-width:0.25;fill:none"
         id="cropBL2"
         d="M -7.0866141732,744.094488186 L -42.5196850392,744.094488186" />
      <path
         style="stroke:#000000;stroke-width:0.25;fill:none"
         id="cropBR1"
         d="M 524.409448817,751.181102359 L 524.409448817,786.614173225" />
      <path
         style="stroke:#000000;stroke-width:0.25;fill:none"
         id="cropBR2"
         d="M 531.49606299,744.094488186 L 566.929133856,744.094488186" />
    </g>
    <g
       inkscape:label="RegistrationMarks"
       id="RegistrationMarks">
      <g
         id="regMarkL">
        <path
           id="path3448"
           transform="translate(-35.433070866,318.897637794) rotate(0)"
           style="stroke:none;fill-opacity:1;fill:#000000"
           d="m -0.0,17.716535433 -3.5433070866,0 17.716535433,-17.716535433 -17.716535433,-17.716535433 3.5433070866,0 17.716535433,17.716535433 -17.716535433,17.716535433 z" />
        <path
           id="path3450"
           transform="translate(-35.433070866,318.897637794) rotate(0)"
           style="stroke:none;fill-opacity:1;fill:#00ffff"
           d="m -3.5433070866,17.716535433 -3.5433070866,0 17.716535433,-17.716535433 -17.716535433,-17.716535433 3.5433070866,0 17.716535433,17.716535433 -17.716535433,17.716535433 z" />
        <path
           id="path3452"
           transform="translate(-35.433070866,318.897637794) rotate(0)"
           style="stroke:none;fill-opacity:1;fill:#ff00ff"
           d="m -7.0866141732,17.716535433 -3.5433070866,0 17.716535433,-17.716535433 -17.716535433,-17.716535433 3.5433070866,0 17.716535433,17.716535433 -17.716535433,17.716535433 z" />
        <path
           id="path3454"
           transform="translate(-35.433070866,318.897637794) rotate(0)"
           style="stroke:none;fill-opacity:1;fill:#ffff00"
           d="m -10.6299212598,17.716535433 -3.5433070866,0 17.716535433,-17.716535433 -17.716535433,-17.716535433 3.5433070866,0 17.716535433,17.716535433 -17.716535433,17.716535433 z" />
        <path
           id="path3456"
           transform="translate(-35.433070866,318.897637794) rotate(0)"
           style="stroke:none;fill-opacity:1;fill:#000000"
           d="m -14.1732283464,17.716535433 -3.5433070866,0 17.716535433,-17.716535433 -17.716535433,-17.716535433 3.5433070866,0 17.716535433,17.716535433 -17.716535433,17.716535433 z" />
      </g>
      <g
         id="regMarkR">
        <path
           id="path3459"
           transform="translate(559.842519683,318.897637794) rotate(180)"
           style="stroke:none;fill-opacity:1;fill:#000000"
           d="m -0.0,17.716535433 -3.5433070866,0 17.716535433,-17.716535433 -17.716535433,-17.716535433 3.5433070866,0 17.716535433,17.716535433 -17.716535433,17.716535433 z" />
        <path
           id="path3461"
           transform="translate(559.842519683,318.897637794) rotate(180)"
           style="stroke:none;fill-opacity:1;fill:#00ffff"
           d="m -3.5433070866,17.716535433 -3.5433070866,0 17.716535433,-17.716535433 -17.716535433,-17.716535433 3.5433070866,0 17.716535433,17.716535433 -17.716535433,17.716535433 z" />
        <path
           id="path3463"
           transform="translate(559.842519683,318.897637794) rotate(180)"
           style="stroke:none;fill-opacity:1;fill:#ff00ff"
           d="m -7.0866141732,17.716535433 -3.5433070866,0 17.716535433,-17.716535433 -17.716535433,-17.716535433 3.5433070866,0 17.716535433,17.716535433 -17.716535433,17.716535433 z" />
        <path
           id="path3465"
           transform="translate(559.842519683,318.897637794) rotate(180)"
           style="stroke:none;fill-opacity:1;fill:#ffff00"
           d="m -10.6299212598,17.716535433 -3.5433070866,0 17.716535433,-17.716535433 -17.716535433,-17.716535433 3.5433070866,0 17.716535433,17.716535433 -17.716535433,17.716535433 z" />
        <path
           id="path3467"
           transform="translate(559.842519683,318.897637794) rotate(180)"
           style="stroke:none;fill-opacity:1;fill:#000000"
           d="m -14.1732283464,17.716535433 -3.5433070866,0 17.716535433,-17.716535433 -17.716535433,-17.716535433 3.5433070866,0 17.716535433,17.716535433 -17.716535433,17.716535433 z" />
      </g>
      <g
         id="regMarkT">
        <path
           id="path3470"
           transform="translate(262.204724408,-35.433070866) rotate(90)"
           style="stroke:none;fill-opacity:1;fill:#000000"
           d="m -0.0,17.716535433 -3.5433070866,0 17.716535433,-17.716535433 -17.716535433,-17.716535433 3.5433070866,0 17.716535433,17.716535433 -17.716535433,17.716535433 z" />
        <path
           id="path3472"
           transform="translate(262.204724408,-35.433070866) rotate(90)"
           style="stroke:none;fill-opacity:1;fill:#00ffff"
           d="m -3.5433070866,17.716535433 -3.5433070866,0 17.716535433,-17.716535433 -17.716535433,-17.716535433 3.5433070866,0 17.716535433,17.716535433 -17.716535433,17.716535433 z" />
        <path
           id="path3474"
           transform="translate(262.204724408,-35.433070866) rotate(90)"
           style="stroke:none;fill-opacity:1;fill:#ff00ff"
           d="m -7.0866141732,17.716535433 -3.5433070866,0 17.716535433,-17.716535433 -17.716535433,-17.716535433 3.5433070866,0 17.716535433,17.716535433 -17.716535433,17.716535433 z" />
        <path
           id="path3476"
           transform="translate(262.204724408,-35.433070866) rotate(90)"
           style="stroke:none;fill-opacity:1;fill:#ffff00"
           d="m -10.6299212598,17.716535433 -3.5433070866,0 17.716535433,-17.716535433 -17.716535433,-17.716535433 3.5433070866,0 17.716535433,17.716535433 -17.716535433,17.716535433 z" />
        <path
           id="path3478"
           transform="translate(262.204724408,-35.433070866) rotate(90)"
           style="stroke:none;fill-opacity:1;fill:#000000"
           d="m -14.1732283464,17.716535433 -3.5433070866,0 17.716535433,-17.716535433 -17.716535433,-17.716535433 3.5433070866,0 17.716535433,17.716535433 -17.716535433,17.716535433 z" />
      </g>
      <g
         id="regMarkB">
        <path
           id="path3481"
           transform="translate(262.204724408,779.527559052) rotate(-90)"
           style="stroke:none;fill-opacity:1;fill:#000000"
           d="m -0.0,17.716535433 -3.5433070866,0 17.716535433,-17.716535433 -17.716535433,-17.716535433 3.5433070866,0 17.716535433,17.716535433 -17.716535433,17.716535433 z" />
        <path
           id="path3483"
           transform="translate(262.204724408,779.527559052) rotate(-90)"
           style="stroke:none;fill-opacity:1;fill:#00ffff"
           d="m -3.5433070866,17.716535433 -3.5433070866,0 17.716535433,-17.716535433 -17.716535433,-17.716535433 3.5433070866,0 17.716535433,17.716535433 -17.716535433,17.716535433 z" />
        <path
           id="path3485"
           transform="translate(262.204724408,779.527559052) rotate(-90)"
           style="stroke:none;fill-opacity:1;fill:#ff00ff"
           d="m -7.0866141732,17.716535433 -3.5433070866,0 17.716535433,-17.716535433 -17.716535433,-17.716535433 3.5433070866,0 17.716535433,17.716535433 -17.716535433,17.716535433 z" />
        <path
           id="path3487"
           transform="translate(262.204724408,779.527559052) rotate(-90)"
           style="stroke:none;fill-opacity:1;fill:#ffff00"
           d="m -10.6299212598,17.716535433 -3.5433070866,0 17.716535433,-17.716535433 -17.716535433,-17.716535433 3.5433070866,0 17.716535433,17.716535433 -17.716535433,17.716535433 z" />
        <path
           id="path3489"
           transform="translate(262.204724408,779.527559052) rotate(-90)"
           style="stroke:none;fill-opacity:1;fill:#000000"
           d="m -14.1732283464,17.716535433 -3.5433070866,0 17.716535433,-17.716535433 -17.716535433,-17.716535433 3.5433070866,0 17.716535433,17.716535433 -17.716535433,17.716535433 z" />
      </g>
    </g>
  </g>
</svg>
