<?xml version="1.0" encoding="UTF-8" standalone="no"?>
<!-- Created with Inkscape (http://www.inkscape.org/) -->

<svg
   xmlns:dc="http://purl.org/dc/elements/1.1/"
   xmlns:cc="http://creativecommons.org/ns#"
   xmlns:rdf="http://www.w3.org/1999/02/22-rdf-syntax-ns#"
   xmlns:svg="http://www.w3.org/2000/svg"
   xmlns="http://www.w3.org/2000/svg"
   xmlns:xlink="http://www.w3.org/1999/xlink"
   xmlns:sodipodi="http://sodipodi.sourceforge.net/DTD/sodipodi-0.dtd"
   xmlns:inkscape="http://www.inkscape.org/namespaces/inkscape"
   width="148mm"
   height="210mm"
   viewBox="0 0 524.40946 744.09448"
   id="svg2"
   version="1.1"
   inkscape:version="0.91 r13725"
   sodipodi:docname="5.svg"
   inkscape:export-filename="/home/nylnook/Crea/BD/dessin/6 - Annexes/base rendu/p5.png"
   inkscape:export-xdpi="600"
   inkscape:export-ydpi="600">
  <sodipodi:namedview
     id="base"
     pagecolor="#ffffff"
     bordercolor="#666666"
     borderopacity="1.0"
     inkscape:pageopacity="0.0"
     inkscape:pageshadow="2"
     inkscape:zoom="1.0962614"
     inkscape:cx="274.72462"
     inkscape:cy="228.59111"
     inkscape:document-units="mm"
     inkscape:current-layer="layer3"
     showgrid="false"
     units="mm"
     inkscape:window-width="1280"
     inkscape:window-height="1361"
     inkscape:window-x="1280"
     inkscape:window-y="27"
     inkscape:window-maximized="0"
     showguides="true"
     inkscape:guide-bbox="true"
     inkscape:snap-bbox="true"
     inkscape:bbox-paths="false"
     inkscape:bbox-nodes="true"
     borderlayer="true"
     inkscape:snap-global="false">
    <sodipodi:guide
       inkscape:color="rgb(0,0,255)"
       inkscape:label=""
       id="guide7382"
       orientation="1,0"
       position="-7.0866147,0" />
    <sodipodi:guide
       inkscape:color="rgb(0,0,255)"
       inkscape:label=""
       id="guide7384"
       orientation="1,0"
       position="531.4961,0" />
    <sodipodi:guide
       inkscape:color="rgb(0,0,255)"
       inkscape:label=""
       id="guide7386"
       orientation="0,1"
       position="0,-7.0866142" />
    <sodipodi:guide
       inkscape:color="rgb(0,0,255)"
       inkscape:label=""
       id="guide7388"
       orientation="0,1"
       position="0,751.1811" />
    <sodipodi:guide
       inkscape:color="rgb(0,0,255)"
       inkscape:label=""
       id="guide7390"
       orientation="1,0"
       position="35.433073,0" />
    <sodipodi:guide
       inkscape:color="rgb(0,0,255)"
       inkscape:label=""
       id="guide7392"
       orientation="0,1"
       position="0,708.66142" />
    <sodipodi:guide
       inkscape:color="rgb(0,0,255)"
       inkscape:label=""
       id="guide7394"
       orientation="1,0"
       position="488.97641,0" />
    <sodipodi:guide
       inkscape:color="rgb(0,0,255)"
       inkscape:label=""
       id="guide7396"
       orientation="0,1"
       position="0,35.433071" />
  </sodipodi:namedview>
  <defs
     id="defs4">
    <inkscape:path-effect
       effect="bend_path"
       id="path-effect3512"
       is_visible="true"
       bendpath="m 314.19757,521.41318 c 24.81495,20.67912 86.16539,30.72327 141.70362,-4.13582"
       prop_scale="1"
       scale_y_rel="false"
       vertical="false"
       bendpath-nodetypes="cc" />
    <inkscape:path-effect
       effect="bend_path"
       id="path-effect3499"
       is_visible="true"
       bendpath="m 299.783,464.01523 c 50.22073,-30.48531 95.94109,-25.19865 156.20597,-2.38983"
       prop_scale="1"
       scale_y_rel="false"
       vertical="false"
       bendpath-nodetypes="cc" />
    <inkscape:path-effect
       effect="bend_path"
       id="path-effect3609"
       is_visible="true"
       bendpath="m 255.464,658.14956 c 26,-2 48.45873,3 64.95873,20"
       prop_scale="1"
       scale_y_rel="false"
       vertical="false"
       bendpath-nodetypes="cc" />
    <inkscape:path-effect
       effect="bend_path"
       id="path-effect3590"
       is_visible="true"
       bendpath="m 396.71471,421.683 c 33,-10 69.06701,-7 85.06701,6.5"
       prop_scale="1"
       scale_y_rel="false"
       vertical="false"
       bendpath-nodetypes="cc" />
    <clipPath
       clipPathUnits="userSpaceOnUse"
       id="clipPath5115">
      <rect
         y="604.69122"
         x="28.346457"
         height="419.32443"
         width="538.5827"
         id="rect5117"
         style="opacity:0.5;fill:#000000;fill-opacity:1;stroke:none;stroke-width:10.62992096;stroke-linecap:round;stroke-linejoin:round;stroke-miterlimit:4;stroke-dasharray:none;stroke-dashoffset:4.0999999;stroke-opacity:1" />
    </clipPath>
    <clipPath
       clipPathUnits="userSpaceOnUse"
       id="clipPath5056">
      <path
         sodipodi:nodetypes="ccccc"
         id="path5058"
         d="m 70.866142,594.69339 144.095668,0 0,-286.42578 -144.095668,0 z"
         style="display:inline;opacity:0.5;fill:#000000;fill-opacity:1;stroke:none;stroke-width:1;stroke-linecap:round;stroke-linejoin:round;stroke-miterlimit:4;stroke-dasharray:none;stroke-dashoffset:0;stroke-opacity:1"
         inkscape:connector-curvature="0" />
    </clipPath>
    <clipPath
       clipPathUnits="userSpaceOnUse"
       id="clipPath5122">
      <path
         inkscape:connector-curvature="0"
         style="display:inline;opacity:0.5;fill:#000000;fill-opacity:1;stroke:none;stroke-width:1;stroke-linecap:round;stroke-linejoin:round;stroke-miterlimit:4;stroke-dasharray:none;stroke-dashoffset:0;stroke-opacity:1"
         d="m 225.58995,594.69339 144.09567,0 0,-286.42578 -144.09567,0 z"
         id="path5124"
         sodipodi:nodetypes="ccccc" />
    </clipPath>
    <clipPath
       clipPathUnits="userSpaceOnUse"
       id="clipPath5129">
      <path
         sodipodi:nodetypes="ccccc"
         id="path5131"
         d="m 380.31378,594.69339 144.09567,0 0,-286.42578 -144.09567,0 z"
         style="display:inline;opacity:0.5;fill:#000000;fill-opacity:1;stroke:none;stroke-width:1;stroke-linecap:round;stroke-linejoin:round;stroke-miterlimit:4;stroke-dasharray:none;stroke-dashoffset:0;stroke-opacity:1"
         inkscape:connector-curvature="0" />
    </clipPath>
    <clipPath
       clipPathUnits="userSpaceOnUse"
       id="clipPath3564">
      <path
         sodipodi:nodetypes="cccccc"
         inkscape:connector-curvature="0"
         id="path3566"
         d="m 35.433075,625.57288 0,-281.87223 303.857945,0 0,175.55836 -114.00242,106.42574 z"
         style="opacity:0.5;fill:#000000;fill-opacity:1;stroke:none;stroke-width:0.35433072;stroke-linecap:round;stroke-linejoin:round;stroke-miterlimit:4;stroke-dasharray:none;stroke-dashoffset:0;stroke-opacity:1" />
    </clipPath>
    <clipPath
       clipPathUnits="userSpaceOnUse"
       id="clipPath3568">
      <path
         style="opacity:0.5;fill:#000000;fill-opacity:1;stroke:none;stroke-width:0.35433072;stroke-linecap:round;stroke-linejoin:round;stroke-miterlimit:4;stroke-dasharray:none;stroke-dashoffset:0;stroke-opacity:1"
         d="m 488.97643,529.8236 0,217.0441 -233.9733,0 0,-135.18149 87.78287,-81.94875 z"
         id="path3570"
         inkscape:connector-curvature="0"
         sodipodi:nodetypes="cccccc" />
    </clipPath>
    <clipPath
       clipPathUnits="userSpaceOnUse"
       id="clipPath3539">
      <rect
         style="opacity:0.5;fill:#272f3c;fill-opacity:1;stroke:none;stroke-width:0.35433072;stroke-linecap:round;stroke-linejoin:round;stroke-miterlimit:4;stroke-dasharray:none;stroke-dashoffset:0;stroke-opacity:1"
         id="rect3541"
         width="453.54337"
         height="308.71356"
         x="622.36469"
         y="505.45435" />
    </clipPath>
    <clipPath
       clipPathUnits="userSpaceOnUse"
       id="clipPath3556">
      <path
         sodipodi:nodetypes="cccccc"
         inkscape:connector-curvature="0"
         id="path3558"
         d="m 488.97643,812.57452 -203.48715,0 0,90.40334 c 20.06985,81.61738 0,113.08374 0,113.08374 l 203.48715,0 z"
         style="opacity:0.5;fill:#000000;fill-opacity:1;stroke:none;stroke-width:0.35433072;stroke-linecap:round;stroke-linejoin:round;stroke-miterlimit:4;stroke-dasharray:none;stroke-dashoffset:0;stroke-opacity:1" />
    </clipPath>
    <clipPath
       clipPathUnits="userSpaceOnUse"
       id="clipPath3560">
      <path
         style="opacity:0.5;fill:#000000;fill-opacity:1;stroke:none;stroke-width:0.35433072;stroke-linecap:round;stroke-linejoin:round;stroke-miterlimit:4;stroke-dasharray:none;stroke-dashoffset:0;stroke-opacity:1"
         d="m 35.433071,813.44189 203.487149,0 0,90.40334 c -20.06985,81.61738 0,113.08377 0,113.08377 l -203.487149,0 z"
         id="path3562"
         inkscape:connector-curvature="0"
         sodipodi:nodetypes="cccccc" />
    </clipPath>
    <clipPath
       clipPathUnits="userSpaceOnUse"
       id="clipPath3559">
      <rect
         style="opacity:0.5;fill:#000000;fill-opacity:1;stroke:none;stroke-width:0.35433072;stroke-linecap:round;stroke-linejoin:round;stroke-miterlimit:4;stroke-dasharray:none;stroke-dashoffset:0;stroke-opacity:1"
         id="rect3561"
         width="199.31833"
         height="187.31729"
         x="35.433071"
         y="557.38965" />
    </clipPath>
    <clipPath
       clipPathUnits="userSpaceOnUse"
       id="clipPath3585">
      <path
         style="opacity:0.5;fill:#000000;fill-opacity:1;stroke:none;stroke-width:0.35433072;stroke-linecap:round;stroke-linejoin:round;stroke-miterlimit:4;stroke-dasharray:none;stroke-dashoffset:0;stroke-opacity:1"
         d="m 168.33847,343.70065 363.15762,0 0,363.15763 -141.81639,0 -221.34123,-268.5192 z"
         id="path3587"
         inkscape:connector-curvature="0"
         sodipodi:nodetypes="cccccc" />
    </clipPath>
    <clipPath
       clipPathUnits="userSpaceOnUse"
       id="clipPath3523">
      <path
         style="opacity:0.5;fill:#000000;fill-opacity:1;stroke:none;stroke-width:0.35433072;stroke-linecap:round;stroke-linejoin:round;stroke-miterlimit:4;stroke-dasharray:none;stroke-dashoffset:0;stroke-opacity:1"
         d="m 35.433071,620.74042 282.275759,0 0,162.87402 -75.66178,119.40173 -206.613979,0 z"
         id="path3525"
         inkscape:connector-curvature="0"
         sodipodi:nodetypes="cccccc" />
    </clipPath>
    <clipPath
       clipPathUnits="userSpaceOnUse"
       id="clipPath4317">
      <rect
         transform="matrix(0,-1,1,0,0,0)"
         y="257.99899"
         x="-1016.929"
         height="230.97745"
         width="369.20889"
         id="rect4320"
         style="opacity:0.5;fill:#000000;fill-opacity:1;stroke:none;stroke-width:0.35433072;stroke-linecap:round;stroke-linejoin:round;stroke-miterlimit:4;stroke-dasharray:none;stroke-dashoffset:0;stroke-opacity:1" />
    </clipPath>
    <clipPath
       clipPathUnits="userSpaceOnUse"
       id="clipPath4429">
      <path
         sodipodi:nodetypes="cccccc"
         inkscape:connector-curvature="0"
         id="path4431"
         d="m 311.63168,716.73814 177.34468,0.90768 0,299.28318 -292.47628,0 2.11089,-209.473 c 28.92038,-33.68633 85.49311,-61.41865 113.02071,-90.71786 z"
         style="opacity:0.5;fill:#000000;fill-opacity:1;stroke:none;stroke-width:1.99842525;stroke-linecap:butt;stroke-linejoin:miter;stroke-miterlimit:4;stroke-dasharray:none;stroke-dashoffset:0;stroke-opacity:1" />
    </clipPath>
    <clipPath
       clipPathUnits="userSpaceOnUse"
       id="clipPath4509">
      <rect
         y="343.70062"
         x="-54.150925"
         height="673.22833"
         width="300.63373"
         id="rect4511"
         style="opacity:0.5;fill:#000000;fill-opacity:1;stroke:none;stroke-width:0.70866144;stroke-linecap:butt;stroke-linejoin:miter;stroke-miterlimit:4;stroke-dasharray:none;stroke-dashoffset:0;stroke-opacity:1" />
    </clipPath>
    <clipPath
       clipPathUnits="userSpaceOnUse"
       id="clipPath4337">
      <rect
         style="opacity:0.5;fill:#ffffff;fill-opacity:1;stroke:none;stroke-width:0.70866144;stroke-linecap:butt;stroke-linejoin:miter;stroke-miterlimit:4;stroke-dasharray:none;stroke-dashoffset:0;stroke-opacity:1"
         id="rect4339"
         width="404.89417"
         height="188.39473"
         x="56.188519"
         y="828.5343" />
    </clipPath>
    <clipPath
       clipPathUnits="userSpaceOnUse"
       id="clipPath4298">
      <rect
         y="343.70065"
         x="279.20517"
         height="217.55725"
         width="247.40231"
         id="rect4300"
         style="opacity:0.5;fill:#c0c0c0;fill-opacity:1;stroke:none;stroke-width:0.70866144;stroke-linecap:butt;stroke-linejoin:miter;stroke-miterlimit:4;stroke-dasharray:none;stroke-dashoffset:0;stroke-opacity:1" />
    </clipPath>
  </defs>
  <metadata
     id="metadata7">
    <rdf:RDF>
      <cc:Work
         rdf:about="">
        <dc:format>image/svg+xml</dc:format>
        <dc:type
           rdf:resource="http://purl.org/dc/dcmitype/StillImage" />
        <dc:title />
      </cc:Work>
    </rdf:RDF>
  </metadata>
  <g
     style="display:inline"
     inkscape:label="artwork"
     inkscape:groupmode="layer"
     id="layer1"
     transform="translate(0,-308.26761)"
     sodipodi:insensitive="true">
    <image
       sodipodi:absref="/home/nylnook/Crea/BD/climate-frogs-comic/layout/without-text/../p5.png"
       xlink:href="../p5.png"
       y="301.18097"
       x="-7.0866151"
       id="image3507"
       preserveAspectRatio="none"
       height="758.25006"
       width="538.65009" />
  </g>
  <g
     transform="translate(0,-70.866142)"
     inkscape:label="bubbles"
     id="layer2"
     inkscape:groupmode="layer"
     style="display:inline">
    <path
       style="opacity:1;fill:#ffffff;fill-opacity:1;stroke:none;stroke-width:0.35433072;stroke-linecap:round;stroke-linejoin:round;stroke-miterlimit:4;stroke-dasharray:none;stroke-dashoffset:0;stroke-opacity:1"
       d="m 344.28098,720.85176 1.05323,1.54886"
       id="path3595"
       inkscape:connector-curvature="0" />
    <path
       style="opacity:1;fill:#ffffff;fill-opacity:1;stroke:none;stroke-width:0.35433072;stroke-linecap:round;stroke-linejoin:round;stroke-miterlimit:4;stroke-dasharray:none;stroke-dashoffset:0;stroke-opacity:1"
       d="m 432.10423,800.44693 1.37073,-0.96758"
       id="path3619"
       inkscape:connector-curvature="0" />
    <path
       style="opacity:1;fill:#ffffff;fill-opacity:1;stroke:none;stroke-width:1.99842525;stroke-linecap:butt;stroke-linejoin:miter;stroke-miterlimit:4;stroke-dasharray:none;stroke-dashoffset:0;stroke-opacity:1"
       d="m 604.81392,420.1175 c 10.0251,7.5218 -0.42117,0.19883 -5.50944,-1.83648"
       id="path4392"
       inkscape:connector-curvature="0" />
    <path
       style="opacity:1;fill:#ffffff;fill-opacity:1;stroke:none;stroke-width:0.70866144;stroke-linecap:butt;stroke-linejoin:miter;stroke-miterlimit:4;stroke-dasharray:none;stroke-dashoffset:0;stroke-opacity:1"
       d="m 79.539415,245.8721 c -23.666462,-0.20891 -21.207032,5.61971 -22.817612,18.44728 -1.875146,14.93472 5.570371,33.2239 15.836889,34.65976 29.182558,4.08144 130.504518,-3.07417 159.626158,0.52058 14.54905,1.79592 12.26279,-51.23853 8.23582,-52.34413 -50.41018,-13.84017 -112.20754,0.67884 -160.881255,-1.28349 z"
       id="path4378"
       inkscape:connector-curvature="0"
       sodipodi:nodetypes="cssssc" />
    <path
       style="opacity:1;fill:#ffffff;fill-opacity:1;stroke:none;stroke-width:0.70866144;stroke-linecap:butt;stroke-linejoin:miter;stroke-miterlimit:4;stroke-dasharray:none;stroke-dashoffset:0;stroke-opacity:1"
       d="m 295.33397,256.74968 c -7.51412,1.44294 -13.64727,4.44221 -16.50718,10.27852 -3.60556,7.35796 0.47659,15.9492 7.48934,21.40687 7.56095,5.88429 18.51103,6.37389 29.63111,7.76622 29.26875,3.66471 130.93683,6.77951 156.97702,-2.94416 8.8358,-3.29938 9.8417,-9.2662 10.52569,-16.83812 1.52186,-16.84725 1.52329,-16.90838 -22.67687,-19.82088 -13.83918,-1.66555 -27.17941,-3.42007 -41.27959,-3.29088 -20.7511,0.19015 -41.39203,3.03107 -62.04769,3.03107 -20.97134,0 -41.74912,0.53247 -62.11183,0.41136 z"
       id="path4380"
       inkscape:connector-curvature="0"
       sodipodi:nodetypes="cssssssssc" />
    <path
       style="opacity:1;fill:#ffffff;fill-opacity:1;stroke:none;stroke-width:0.70866144;stroke-linecap:butt;stroke-linejoin:miter;stroke-miterlimit:4;stroke-dasharray:none;stroke-dashoffset:0;stroke-opacity:1"
       d="m 81.438317,574.6462 c 9.989068,8.60342 36.262533,13.94814 47.833783,14.22022 40.65557,0.95595 81.7001,-1.17867 122.33713,-1.76984 48.41107,-0.70428 84.99275,4.58707 134.02724,1.4141 16.61693,-1.07526 36.2931,1.41347 52.51043,-5.86648 9.28276,-4.16702 14.36623,-21.91417 14.43434,-25.49512 0.48786,-25.64978 -43.81253,-21.25007 -58.46964,-22.2454 -23.14271,-1.57157 -44.66864,-0.0284 -67.83428,-1.04665 -28.5956,-1.25705 -51.45571,-4.45193 -79.94633,-2.01762 -50.08281,7.83114 -123.65998,-8.08325 -159.454294,7.20157 -11.005858,4.59092 -19.04698,23.88436 -5.438379,35.60522 z"
       id="path4382"
       inkscape:connector-curvature="0"
       sodipodi:nodetypes="ssssssssccs" />
    <path
       style="opacity:1;fill:#ffffff;fill-opacity:1;stroke:none;stroke-width:0.70866144;stroke-linecap:butt;stroke-linejoin:miter;stroke-miterlimit:4;stroke-dasharray:none;stroke-dashoffset:0;stroke-opacity:1"
       d="m 98.470559,726.40757 c -6.656556,-0.42257 -19.35973,4.76268 -18.08255,13.66259 1.643923,11.45553 5.845429,39.52796 15.981687,40.13812 39.691284,2.38924 95.828114,9.98309 136.687944,8.12948 52.81332,-2.39589 111.78344,3.03257 164.21229,-4.31493 10.7795,-1.51067 21.56728,1.30824 31.49605,-4.19689 4.89595,-2.71463 17.09288,-22.21065 13.76524,-33.07116 -10.59077,-34.5654 -47.70955,-21.23812 -74.99197,-21.23812 -31.98843,0 -68.89576,4.03834 -100.9286,3.73024 -23.96897,-0.23053 -46.26946,-3.53251 -70.22576,-2.71829 -32.23748,1.09567 -67.04504,4.83184 -97.914331,-0.12104 z"
       id="path4384"
       inkscape:connector-curvature="0"
       sodipodi:nodetypes="csssssssssc" />
    <path
       sodipodi:nodetypes="cc"
       inkscape:connector-curvature="0"
       id="path4354"
       d="M 407.62987,452.45211 390.8777,467.83734"
       style="display:inline;opacity:1;fill:none;fill-opacity:1;stroke:#000000;stroke-width:0.7086615;stroke-linecap:butt;stroke-linejoin:miter;stroke-miterlimit:4;stroke-dasharray:none;stroke-dashoffset:0;stroke-opacity:1" />
    <path
       sodipodi:nodetypes="cc"
       inkscape:connector-curvature="0"
       id="path4356"
       d="m 345.42852,415.81644 -13.02339,12.3256"
       style="display:inline;opacity:1;fill:none;fill-opacity:1;stroke:#000000;stroke-width:0.7086615;stroke-linecap:butt;stroke-linejoin:miter;stroke-miterlimit:4;stroke-dasharray:none;stroke-dashoffset:0;stroke-opacity:1" />
    <path
       style="display:inline;opacity:1;fill:none;fill-opacity:1;stroke:#000000;stroke-width:0.7086615;stroke-linecap:butt;stroke-linejoin:miter;stroke-miterlimit:4;stroke-dasharray:none;stroke-dashoffset:0;stroke-opacity:1"
       d="m 203.40654,437.62924 -9.06846,-8.64584"
       id="path4445"
       inkscape:connector-curvature="0"
       sodipodi:nodetypes="cc" />
    <path
       sodipodi:nodetypes="cc"
       inkscape:connector-curvature="0"
       id="path4537"
       d="m 223.87548,341.25361 12.77094,-10.61489"
       style="display:inline;opacity:1;fill:none;fill-opacity:1;stroke:#000000;stroke-width:0.7086615;stroke-linecap:butt;stroke-linejoin:miter;stroke-miterlimit:4;stroke-dasharray:none;stroke-dashoffset:0;stroke-opacity:1" />
    <rect
       style="display:inline;opacity:1;fill:none;fill-opacity:1;stroke:#000000;stroke-width:0.70866144;stroke-linecap:butt;stroke-linejoin:miter;stroke-miterlimit:4;stroke-dasharray:none;stroke-dashoffset:0;stroke-opacity:1"
       id="rect4451"
       width="47.796326"
       height="16.002409"
       x="415.46939"
       y="343.56598"
       ry="3.0522151"
       rx="23.898163" />
  </g>
  <g
     transform="translate(0,-70.866142)"
     inkscape:label="text"
     id="layer3"
     inkscape:groupmode="layer"
     style="display:inline" />
  <g
     sodipodi:insensitive="true"
     inkscape:groupmode="layer"
     inkscape:label="printing marks"
     id="printing-marks"
     style="display:inline">
    <g
       inkscape:label="CropMarks"
       id="CropMarks">
      <path
         style="fill:none;stroke:#000000;stroke-width:0.25"
         id="cropTL1"
         d="M 0,-7.0866142 0,-42.519685"
         inkscape:connector-curvature="0" />
      <path
         style="fill:none;stroke:#000000;stroke-width:0.25"
         id="cropTL2"
         d="M -7.0866142,0 -42.519685,0"
         inkscape:connector-curvature="0" />
      <path
         style="fill:none;stroke:#000000;stroke-width:0.25"
         id="cropTR1"
         d="m 524.40945,-7.0866142 0,-35.4330708"
         inkscape:connector-curvature="0" />
      <path
         style="fill:none;stroke:#000000;stroke-width:0.25"
         id="cropTR2"
         d="m 531.49606,0 35.43307,0"
         inkscape:connector-curvature="0" />
      <path
         style="fill:none;stroke:#000000;stroke-width:0.25"
         id="cropBL1"
         d="m 0,751.1811 0,35.43307"
         inkscape:connector-curvature="0" />
      <path
         style="fill:none;stroke:#000000;stroke-width:0.25"
         id="cropBL2"
         d="m -7.0866142,744.09449 -35.4330708,0"
         inkscape:connector-curvature="0" />
      <path
         style="fill:none;stroke:#000000;stroke-width:0.25"
         id="cropBR1"
         d="m 524.40945,751.1811 0,35.43307"
         inkscape:connector-curvature="0" />
      <path
         style="fill:none;stroke:#000000;stroke-width:0.25"
         id="cropBR2"
         d="m 531.49606,744.09449 35.43307,0"
         inkscape:connector-curvature="0" />
    </g>
    <g
       inkscape:label="RegistrationMarks"
       id="RegistrationMarks">
      <g
         id="regMarkL">
        <path
           id="path3448"
           transform="translate(-35.433071,318.89764)"
           style="fill:#000000;fill-opacity:1;stroke:none"
           d="m 0,17.716535 -3.5433071,0 L 14.173228,0 -3.5433071,-17.716535 0,-17.716535 17.716535,0 0,17.716535 Z"
           inkscape:connector-curvature="0" />
        <path
           id="path3450"
           transform="translate(-35.433071,318.89764)"
           style="fill:#00ffff;fill-opacity:1;stroke:none"
           d="m -3.5433071,17.716535 -3.5433071,0 L 10.629921,0 -7.0866142,-17.716535 l 3.5433071,0 L 14.173228,0 -3.5433071,17.716535 Z"
           inkscape:connector-curvature="0" />
        <path
           id="path3452"
           transform="translate(-35.433071,318.89764)"
           style="fill:#ff00ff;fill-opacity:1;stroke:none"
           d="m -7.0866142,17.716535 -3.5433068,0 L 7.0866142,0 -10.629921,-17.716535 l 3.5433068,0 L 10.629921,0 -7.0866142,17.716535 Z"
           inkscape:connector-curvature="0" />
        <path
           id="path3454"
           transform="translate(-35.433071,318.89764)"
           style="fill:#ffff00;fill-opacity:1;stroke:none"
           d="m -10.629921,17.716535 -3.543307,0 L 3.5433071,0 -14.173228,-17.716535 l 3.543307,0 L 7.0866142,0 -10.629921,17.716535 Z"
           inkscape:connector-curvature="0" />
        <path
           id="path3456"
           transform="translate(-35.433071,318.89764)"
           style="fill:#000000;fill-opacity:1;stroke:none"
           d="m -14.173228,17.716535 -3.543307,0 L 0,0 l -17.716535,-17.716535 3.543307,0 L 3.5433071,0 -14.173228,17.716535 Z"
           inkscape:connector-curvature="0" />
      </g>
      <g
         id="regMarkR">
        <path
           id="path3459"
           transform="matrix(-1,0,0,-1,559.84252,318.89764)"
           style="fill:#000000;fill-opacity:1;stroke:none"
           d="m 0,17.716535 -3.5433071,0 L 14.173228,0 -3.5433071,-17.716535 0,-17.716535 17.716535,0 0,17.716535 Z"
           inkscape:connector-curvature="0" />
        <path
           id="path3461"
           transform="matrix(-1,0,0,-1,559.84252,318.89764)"
           style="fill:#00ffff;fill-opacity:1;stroke:none"
           d="m -3.5433071,17.716535 -3.5433071,0 L 10.629921,0 -7.0866142,-17.716535 l 3.5433071,0 L 14.173228,0 -3.5433071,17.716535 Z"
           inkscape:connector-curvature="0" />
        <path
           id="path3463"
           transform="matrix(-1,0,0,-1,559.84252,318.89764)"
           style="fill:#ff00ff;fill-opacity:1;stroke:none"
           d="m -7.0866142,17.716535 -3.5433068,0 L 7.0866142,0 -10.629921,-17.716535 l 3.5433068,0 L 10.629921,0 -7.0866142,17.716535 Z"
           inkscape:connector-curvature="0" />
        <path
           id="path3465"
           transform="matrix(-1,0,0,-1,559.84252,318.89764)"
           style="fill:#ffff00;fill-opacity:1;stroke:none"
           d="m -10.629921,17.716535 -3.543307,0 L 3.5433071,0 -14.173228,-17.716535 l 3.543307,0 L 7.0866142,0 -10.629921,17.716535 Z"
           inkscape:connector-curvature="0" />
        <path
           id="path3467"
           transform="matrix(-1,0,0,-1,559.84252,318.89764)"
           style="fill:#000000;fill-opacity:1;stroke:none"
           d="m -14.173228,17.716535 -3.543307,0 L 0,0 l -17.716535,-17.716535 3.543307,0 L 3.5433071,0 -14.173228,17.716535 Z"
           inkscape:connector-curvature="0" />
      </g>
      <g
         id="regMarkT">
        <path
           id="path3470"
           transform="matrix(0,1,-1,0,262.20472,-35.433071)"
           style="fill:#000000;fill-opacity:1;stroke:none"
           d="m 0,17.716535 -3.5433071,0 L 14.173228,0 -3.5433071,-17.716535 0,-17.716535 17.716535,0 0,17.716535 Z"
           inkscape:connector-curvature="0" />
        <path
           id="path3472"
           transform="matrix(0,1,-1,0,262.20472,-35.433071)"
           style="fill:#00ffff;fill-opacity:1;stroke:none"
           d="m -3.5433071,17.716535 -3.5433071,0 L 10.629921,0 -7.0866142,-17.716535 l 3.5433071,0 L 14.173228,0 -3.5433071,17.716535 Z"
           inkscape:connector-curvature="0" />
        <path
           id="path3474"
           transform="matrix(0,1,-1,0,262.20472,-35.433071)"
           style="fill:#ff00ff;fill-opacity:1;stroke:none"
           d="m -7.0866142,17.716535 -3.5433068,0 L 7.0866142,0 -10.629921,-17.716535 l 3.5433068,0 L 10.629921,0 -7.0866142,17.716535 Z"
           inkscape:connector-curvature="0" />
        <path
           id="path3476"
           transform="matrix(0,1,-1,0,262.20472,-35.433071)"
           style="fill:#ffff00;fill-opacity:1;stroke:none"
           d="m -10.629921,17.716535 -3.543307,0 L 3.5433071,0 -14.173228,-17.716535 l 3.543307,0 L 7.0866142,0 -10.629921,17.716535 Z"
           inkscape:connector-curvature="0" />
        <path
           id="path3478"
           transform="matrix(0,1,-1,0,262.20472,-35.433071)"
           style="fill:#000000;fill-opacity:1;stroke:none"
           d="m -14.173228,17.716535 -3.543307,0 L 0,0 l -17.716535,-17.716535 3.543307,0 L 3.5433071,0 -14.173228,17.716535 Z"
           inkscape:connector-curvature="0" />
      </g>
      <g
         id="regMarkB">
        <path
           id="path3481"
           transform="matrix(0,-1,1,0,262.20472,779.52756)"
           style="fill:#000000;fill-opacity:1;stroke:none"
           d="m 0,17.716535 -3.5433071,0 L 14.173228,0 -3.5433071,-17.716535 0,-17.716535 17.716535,0 0,17.716535 Z"
           inkscape:connector-curvature="0" />
        <path
           id="path3483"
           transform="matrix(0,-1,1,0,262.20472,779.52756)"
           style="fill:#00ffff;fill-opacity:1;stroke:none"
           d="m -3.5433071,17.716535 -3.5433071,0 L 10.629921,0 -7.0866142,-17.716535 l 3.5433071,0 L 14.173228,0 -3.5433071,17.716535 Z"
           inkscape:connector-curvature="0" />
        <path
           id="path3485"
           transform="matrix(0,-1,1,0,262.20472,779.52756)"
           style="fill:#ff00ff;fill-opacity:1;stroke:none"
           d="m -7.0866142,17.716535 -3.5433068,0 L 7.0866142,0 -10.629921,-17.716535 l 3.5433068,0 L 10.629921,0 -7.0866142,17.716535 Z"
           inkscape:connector-curvature="0" />
        <path
           id="path3487"
           transform="matrix(0,-1,1,0,262.20472,779.52756)"
           style="fill:#ffff00;fill-opacity:1;stroke:none"
           d="m -10.629921,17.716535 -3.543307,0 L 3.5433071,0 -14.173228,-17.716535 l 3.543307,0 L 7.0866142,0 -10.629921,17.716535 Z"
           inkscape:connector-curvature="0" />
        <path
           id="path3489"
           transform="matrix(0,-1,1,0,262.20472,779.52756)"
           style="fill:#000000;fill-opacity:1;stroke:none"
           d="m -14.173228,17.716535 -3.543307,0 L 0,0 l -17.716535,-17.716535 3.543307,0 L 3.5433071,0 -14.173228,17.716535 Z"
           inkscape:connector-curvature="0" />
      </g>
    </g>
  </g>
</svg>
