<?xml version="1.0" encoding="UTF-8" standalone="no"?>
<!-- Created with Inkscape (http://www.inkscape.org/) -->

<svg
   xmlns:dc="http://purl.org/dc/elements/1.1/"
   xmlns:cc="http://creativecommons.org/ns#"
   xmlns:rdf="http://www.w3.org/1999/02/22-rdf-syntax-ns#"
   xmlns:svg="http://www.w3.org/2000/svg"
   xmlns="http://www.w3.org/2000/svg"
   xmlns:xlink="http://www.w3.org/1999/xlink"
   xmlns:sodipodi="http://sodipodi.sourceforge.net/DTD/sodipodi-0.dtd"
   xmlns:inkscape="http://www.inkscape.org/namespaces/inkscape"
   width="148mm"
   height="210mm"
   viewBox="0 0 524.40946 744.09448"
   id="svg2"
   version="1.1"
   inkscape:version="0.91 r13725"
   sodipodi:docname="6.svg"
   inkscape:export-filename="/home/nylnook/Crea/BD/dessin/6 - Annexes/base rendu/p6.png"
   inkscape:export-xdpi="600"
   inkscape:export-ydpi="600">
  <sodipodi:namedview
     id="base"
     pagecolor="#ffffff"
     bordercolor="#666666"
     borderopacity="1.0"
     inkscape:pageopacity="0.0"
     inkscape:pageshadow="2"
     inkscape:zoom="1.5642846"
     inkscape:cx="107.63899"
     inkscape:cy="402.28108"
     inkscape:document-units="mm"
     inkscape:current-layer="layer3"
     showgrid="false"
     units="mm"
     inkscape:window-width="2560"
     inkscape:window-height="1361"
     inkscape:window-x="0"
     inkscape:window-y="27"
     inkscape:window-maximized="1"
     showguides="true"
     inkscape:guide-bbox="true"
     inkscape:snap-bbox="true"
     inkscape:bbox-paths="false"
     inkscape:bbox-nodes="true"
     borderlayer="true"
     inkscape:snap-global="false">
    <sodipodi:guide
       inkscape:color="rgb(0,0,255)"
       inkscape:label=""
       id="guide7382"
       orientation="1,0"
       position="-7.0866147,0" />
    <sodipodi:guide
       inkscape:color="rgb(0,0,255)"
       inkscape:label=""
       id="guide7384"
       orientation="1,0"
       position="531.4961,0" />
    <sodipodi:guide
       inkscape:color="rgb(0,0,255)"
       inkscape:label=""
       id="guide7386"
       orientation="0,1"
       position="0,-7.0866142" />
    <sodipodi:guide
       inkscape:color="rgb(0,0,255)"
       inkscape:label=""
       id="guide7388"
       orientation="0,1"
       position="0,751.1811" />
    <sodipodi:guide
       inkscape:color="rgb(0,0,255)"
       inkscape:label=""
       id="guide7390"
       orientation="1,0"
       position="35.433073,0" />
    <sodipodi:guide
       inkscape:color="rgb(0,0,255)"
       inkscape:label=""
       id="guide7392"
       orientation="0,1"
       position="0,708.66142" />
    <sodipodi:guide
       inkscape:color="rgb(0,0,255)"
       inkscape:label=""
       id="guide7394"
       orientation="1,0"
       position="488.97641,0" />
    <sodipodi:guide
       inkscape:color="rgb(0,0,255)"
       inkscape:label=""
       id="guide7396"
       orientation="0,1"
       position="0,35.433071" />
  </sodipodi:namedview>
  <defs
     id="defs4">
    <marker
       inkscape:stockid="TriangleOutM"
       orient="auto"
       refY="0.0"
       refX="0.0"
       id="marker7989"
       style="overflow:visible"
       inkscape:isstock="true">
      <path
         id="path7991"
         d="M 5.77,0.0 L -2.88,5.0 L -2.88,-5.0 L 5.77,0.0 z "
         style="fill-rule:evenodd;stroke:#000000;stroke-width:1pt;stroke-opacity:1;fill:#000000;fill-opacity:1"
         transform="scale(0.4)" />
    </marker>
    <marker
       inkscape:stockid="TriangleOutM"
       orient="auto"
       refY="0.0"
       refX="0.0"
       id="TriangleOutM"
       style="overflow:visible"
       inkscape:isstock="true">
      <path
         id="path4567"
         d="M 5.77,0.0 L -2.88,5.0 L -2.88,-5.0 L 5.77,0.0 z "
         style="fill-rule:evenodd;stroke:#000000;stroke-width:1.0pt"
         transform="scale(0.4)" />
    </marker>
    <marker
       inkscape:isstock="true"
       style="overflow:visible"
       id="marker6397"
       refX="0.0"
       refY="0.0"
       orient="auto"
       inkscape:stockid="TriangleOutM"
       inkscape:collect="always">
      <path
         transform="scale(0.4)"
         style="fill-rule:evenodd;stroke:#000000;stroke-width:1pt;stroke-opacity:1;fill:#000000;fill-opacity:1"
         d="M 5.77,0.0 L -2.88,5.0 L -2.88,-5.0 L 5.77,0.0 z "
         id="path6399" />
    </marker>
    <marker
       inkscape:stockid="Arrow1Mend"
       orient="auto"
       refY="0.0"
       refX="0.0"
       id="Arrow1Mend"
       style="overflow:visible;"
       inkscape:isstock="true">
      <path
         id="path4699"
         d="M 0.0,0.0 L 5.0,-5.0 L -12.5,0.0 L 5.0,5.0 L 0.0,0.0 z "
         style="fill-rule:evenodd;stroke:#000000;stroke-width:1pt;stroke-opacity:1;fill:#000000;fill-opacity:1"
         transform="scale(0.4) rotate(180) translate(10,0)" />
    </marker>
    <marker
       inkscape:stockid="Arrow1Lend"
       orient="auto"
       refY="0.0"
       refX="0.0"
       id="Arrow1Lend"
       style="overflow:visible;"
       inkscape:isstock="true">
      <path
         id="path4425"
         d="M 0.0,0.0 L 5.0,-5.0 L -12.5,0.0 L 5.0,5.0 L 0.0,0.0 z "
         style="fill-rule:evenodd;stroke:#000000;stroke-width:1pt;stroke-opacity:1;fill:#000000;fill-opacity:1"
         transform="scale(0.8) rotate(180) translate(12.5,0)" />
    </marker>
    <inkscape:path-effect
       effect="bend_path"
       id="path-effect3512"
       is_visible="true"
       bendpath="m 314.19757,521.41318 c 24.81495,20.67912 86.16539,30.72327 141.70362,-4.13582"
       prop_scale="1"
       scale_y_rel="false"
       vertical="false"
       bendpath-nodetypes="cc" />
    <inkscape:path-effect
       effect="bend_path"
       id="path-effect3499"
       is_visible="true"
       bendpath="m 299.783,464.01523 c 50.22073,-30.48531 95.94109,-25.19865 156.20597,-2.38983"
       prop_scale="1"
       scale_y_rel="false"
       vertical="false"
       bendpath-nodetypes="cc" />
    <inkscape:path-effect
       effect="bend_path"
       id="path-effect3609"
       is_visible="true"
       bendpath="m 255.464,658.14956 c 26,-2 48.45873,3 64.95873,20"
       prop_scale="1"
       scale_y_rel="false"
       vertical="false"
       bendpath-nodetypes="cc" />
    <inkscape:path-effect
       effect="bend_path"
       id="path-effect3590"
       is_visible="true"
       bendpath="m 396.71471,421.683 c 33,-10 69.06701,-7 85.06701,6.5"
       prop_scale="1"
       scale_y_rel="false"
       vertical="false"
       bendpath-nodetypes="cc" />
    <clipPath
       clipPathUnits="userSpaceOnUse"
       id="clipPath5115">
      <rect
         y="604.69122"
         x="28.346457"
         height="419.32443"
         width="538.5827"
         id="rect5117"
         style="opacity:0.5;fill:#000000;fill-opacity:1;stroke:none;stroke-width:10.62992096;stroke-linecap:round;stroke-linejoin:round;stroke-miterlimit:4;stroke-dasharray:none;stroke-dashoffset:4.0999999;stroke-opacity:1" />
    </clipPath>
    <clipPath
       clipPathUnits="userSpaceOnUse"
       id="clipPath5056">
      <path
         sodipodi:nodetypes="ccccc"
         id="path5058"
         d="m 70.866142,594.69339 144.095668,0 0,-286.42578 -144.095668,0 z"
         style="display:inline;opacity:0.5;fill:#000000;fill-opacity:1;stroke:none;stroke-width:1;stroke-linecap:round;stroke-linejoin:round;stroke-miterlimit:4;stroke-dasharray:none;stroke-dashoffset:0;stroke-opacity:1"
         inkscape:connector-curvature="0" />
    </clipPath>
    <clipPath
       clipPathUnits="userSpaceOnUse"
       id="clipPath5122">
      <path
         inkscape:connector-curvature="0"
         style="display:inline;opacity:0.5;fill:#000000;fill-opacity:1;stroke:none;stroke-width:1;stroke-linecap:round;stroke-linejoin:round;stroke-miterlimit:4;stroke-dasharray:none;stroke-dashoffset:0;stroke-opacity:1"
         d="m 225.58995,594.69339 144.09567,0 0,-286.42578 -144.09567,0 z"
         id="path5124"
         sodipodi:nodetypes="ccccc" />
    </clipPath>
    <clipPath
       clipPathUnits="userSpaceOnUse"
       id="clipPath5129">
      <path
         sodipodi:nodetypes="ccccc"
         id="path5131"
         d="m 380.31378,594.69339 144.09567,0 0,-286.42578 -144.09567,0 z"
         style="display:inline;opacity:0.5;fill:#000000;fill-opacity:1;stroke:none;stroke-width:1;stroke-linecap:round;stroke-linejoin:round;stroke-miterlimit:4;stroke-dasharray:none;stroke-dashoffset:0;stroke-opacity:1"
         inkscape:connector-curvature="0" />
    </clipPath>
    <clipPath
       clipPathUnits="userSpaceOnUse"
       id="clipPath3564">
      <path
         sodipodi:nodetypes="cccccc"
         inkscape:connector-curvature="0"
         id="path3566"
         d="m 35.433075,625.57288 0,-281.87223 303.857945,0 0,175.55836 -114.00242,106.42574 z"
         style="opacity:0.5;fill:#000000;fill-opacity:1;stroke:none;stroke-width:0.35433072;stroke-linecap:round;stroke-linejoin:round;stroke-miterlimit:4;stroke-dasharray:none;stroke-dashoffset:0;stroke-opacity:1" />
    </clipPath>
    <clipPath
       clipPathUnits="userSpaceOnUse"
       id="clipPath3568">
      <path
         style="opacity:0.5;fill:#000000;fill-opacity:1;stroke:none;stroke-width:0.35433072;stroke-linecap:round;stroke-linejoin:round;stroke-miterlimit:4;stroke-dasharray:none;stroke-dashoffset:0;stroke-opacity:1"
         d="m 488.97643,529.8236 0,217.0441 -233.9733,0 0,-135.18149 87.78287,-81.94875 z"
         id="path3570"
         inkscape:connector-curvature="0"
         sodipodi:nodetypes="cccccc" />
    </clipPath>
    <clipPath
       clipPathUnits="userSpaceOnUse"
       id="clipPath3539">
      <rect
         style="opacity:0.5;fill:#272f3c;fill-opacity:1;stroke:none;stroke-width:0.35433072;stroke-linecap:round;stroke-linejoin:round;stroke-miterlimit:4;stroke-dasharray:none;stroke-dashoffset:0;stroke-opacity:1"
         id="rect3541"
         width="453.54337"
         height="308.71356"
         x="622.36469"
         y="505.45435" />
    </clipPath>
    <clipPath
       clipPathUnits="userSpaceOnUse"
       id="clipPath3556">
      <path
         sodipodi:nodetypes="cccccc"
         inkscape:connector-curvature="0"
         id="path3558"
         d="m 488.97643,812.57452 -203.48715,0 0,90.40334 c 20.06985,81.61738 0,113.08374 0,113.08374 l 203.48715,0 z"
         style="opacity:0.5;fill:#000000;fill-opacity:1;stroke:none;stroke-width:0.35433072;stroke-linecap:round;stroke-linejoin:round;stroke-miterlimit:4;stroke-dasharray:none;stroke-dashoffset:0;stroke-opacity:1" />
    </clipPath>
    <clipPath
       clipPathUnits="userSpaceOnUse"
       id="clipPath3560">
      <path
         style="opacity:0.5;fill:#000000;fill-opacity:1;stroke:none;stroke-width:0.35433072;stroke-linecap:round;stroke-linejoin:round;stroke-miterlimit:4;stroke-dasharray:none;stroke-dashoffset:0;stroke-opacity:1"
         d="m 35.433071,813.44189 203.487149,0 0,90.40334 c -20.06985,81.61738 0,113.08377 0,113.08377 l -203.487149,0 z"
         id="path3562"
         inkscape:connector-curvature="0"
         sodipodi:nodetypes="cccccc" />
    </clipPath>
    <clipPath
       clipPathUnits="userSpaceOnUse"
       id="clipPath3559">
      <rect
         style="opacity:0.5;fill:#000000;fill-opacity:1;stroke:none;stroke-width:0.35433072;stroke-linecap:round;stroke-linejoin:round;stroke-miterlimit:4;stroke-dasharray:none;stroke-dashoffset:0;stroke-opacity:1"
         id="rect3561"
         width="199.31833"
         height="187.31729"
         x="35.433071"
         y="557.38965" />
    </clipPath>
    <clipPath
       clipPathUnits="userSpaceOnUse"
       id="clipPath3585">
      <path
         style="opacity:0.5;fill:#000000;fill-opacity:1;stroke:none;stroke-width:0.35433072;stroke-linecap:round;stroke-linejoin:round;stroke-miterlimit:4;stroke-dasharray:none;stroke-dashoffset:0;stroke-opacity:1"
         d="m 168.33847,343.70065 363.15762,0 0,363.15763 -141.81639,0 -221.34123,-268.5192 z"
         id="path3587"
         inkscape:connector-curvature="0"
         sodipodi:nodetypes="cccccc" />
    </clipPath>
    <clipPath
       clipPathUnits="userSpaceOnUse"
       id="clipPath3523">
      <path
         style="opacity:0.5;fill:#000000;fill-opacity:1;stroke:none;stroke-width:0.35433072;stroke-linecap:round;stroke-linejoin:round;stroke-miterlimit:4;stroke-dasharray:none;stroke-dashoffset:0;stroke-opacity:1"
         d="m 35.433071,620.74042 282.275759,0 0,162.87402 -75.66178,119.40173 -206.613979,0 z"
         id="path3525"
         inkscape:connector-curvature="0"
         sodipodi:nodetypes="cccccc" />
    </clipPath>
    <clipPath
       clipPathUnits="userSpaceOnUse"
       id="clipPath4317">
      <rect
         transform="matrix(0,-1,1,0,0,0)"
         y="257.99899"
         x="-1016.929"
         height="230.97745"
         width="369.20889"
         id="rect4320"
         style="opacity:0.5;fill:#000000;fill-opacity:1;stroke:none;stroke-width:0.35433072;stroke-linecap:round;stroke-linejoin:round;stroke-miterlimit:4;stroke-dasharray:none;stroke-dashoffset:0;stroke-opacity:1" />
    </clipPath>
    <clipPath
       clipPathUnits="userSpaceOnUse"
       id="clipPath4429">
      <path
         sodipodi:nodetypes="cccccc"
         inkscape:connector-curvature="0"
         id="path4431"
         d="m 311.63168,716.73814 177.34468,0.90768 0,299.28318 -292.47628,0 2.11089,-209.473 c 28.92038,-33.68633 85.49311,-61.41865 113.02071,-90.71786 z"
         style="opacity:0.5;fill:#000000;fill-opacity:1;stroke:none;stroke-width:1.99842525;stroke-linecap:butt;stroke-linejoin:miter;stroke-miterlimit:4;stroke-dasharray:none;stroke-dashoffset:0;stroke-opacity:1" />
    </clipPath>
    <clipPath
       clipPathUnits="userSpaceOnUse"
       id="clipPath4509">
      <rect
         y="343.70062"
         x="-54.150925"
         height="673.22833"
         width="300.63373"
         id="rect4511"
         style="opacity:0.5;fill:#000000;fill-opacity:1;stroke:none;stroke-width:0.70866144;stroke-linecap:butt;stroke-linejoin:miter;stroke-miterlimit:4;stroke-dasharray:none;stroke-dashoffset:0;stroke-opacity:1" />
    </clipPath>
    <clipPath
       clipPathUnits="userSpaceOnUse"
       id="clipPath4337">
      <rect
         style="opacity:0.5;fill:#ffffff;fill-opacity:1;stroke:none;stroke-width:0.70866144;stroke-linecap:butt;stroke-linejoin:miter;stroke-miterlimit:4;stroke-dasharray:none;stroke-dashoffset:0;stroke-opacity:1"
         id="rect4339"
         width="404.89417"
         height="188.39473"
         x="56.188519"
         y="828.5343" />
    </clipPath>
    <clipPath
       clipPathUnits="userSpaceOnUse"
       id="clipPath4298">
      <rect
         y="343.70065"
         x="279.20517"
         height="217.55725"
         width="247.40231"
         id="rect4300"
         style="opacity:0.5;fill:#c0c0c0;fill-opacity:1;stroke:none;stroke-width:0.70866144;stroke-linecap:butt;stroke-linejoin:miter;stroke-miterlimit:4;stroke-dasharray:none;stroke-dashoffset:0;stroke-opacity:1" />
    </clipPath>
    <clipPath
       clipPathUnits="userSpaceOnUse"
       id="clipPath4377">
      <ellipse
         style="opacity:1;fill:#dfdfdf;fill-opacity:1;stroke:none;stroke-width:0.70866144;stroke-linecap:butt;stroke-linejoin:miter;stroke-miterlimit:4;stroke-dasharray:none;stroke-dashoffset:0;stroke-opacity:1"
         id="ellipse4379"
         cx="924.18164"
         cy="650.47382"
         rx="24.210138"
         ry="21.627724"
         transform="scale(-1,1)" />
    </clipPath>
    <clipPath
       clipPathUnits="userSpaceOnUse"
       id="clipPath4412">
      <path
         style="opacity:0.5;fill:#000000;fill-opacity:1;stroke:none;stroke-width:0.70866144;stroke-linecap:butt;stroke-linejoin:miter;stroke-miterlimit:4;stroke-dasharray:none;stroke-dashoffset:0;stroke-opacity:1"
         d="M 490.85663,818.72585 259.43844,334.15684 24.307094,877.51355 Z"
         id="path4414"
         inkscape:connector-curvature="0"
         sodipodi:nodetypes="cccc" />
    </clipPath>
  </defs>
  <metadata
     id="metadata7">
    <rdf:RDF>
      <cc:Work
         rdf:about="">
        <dc:format>image/svg+xml</dc:format>
        <dc:type
           rdf:resource="http://purl.org/dc/dcmitype/StillImage" />
        <dc:title />
      </cc:Work>
    </rdf:RDF>
  </metadata>
  <g
     style="display:inline"
     inkscape:label="artwork"
     inkscape:groupmode="layer"
     id="layer1"
     transform="translate(0,-308.26761)"
     sodipodi:insensitive="true">
    <image
       sodipodi:absref="/home/nylnook/Crea/BD/climate-frogs-comic/layout/without-text/../p6.png"
       xlink:href="../p6.png"
       transform="translate(0,308.26761)"
       width="538.65009"
       height="758.25006"
       preserveAspectRatio="none"
       id="image3532"
       x="-7.1539588"
       y="-7.0689445"
       style="display:inline" />
  </g>
  <g
     transform="translate(0,-70.866142)"
     inkscape:label="bubbles"
     id="layer2"
     inkscape:groupmode="layer"
     style="display:inline">
    <path
       style="opacity:1;fill:#ffffff;fill-opacity:1;stroke:none;stroke-width:0.35433072;stroke-linecap:round;stroke-linejoin:round;stroke-miterlimit:4;stroke-dasharray:none;stroke-dashoffset:0;stroke-opacity:1"
       d="m 432.10423,800.44693 1.37073,-0.96758"
       id="path3619"
       inkscape:connector-curvature="0" />
    <path
       style="opacity:1;fill:#ffffff;fill-opacity:1;stroke:none;stroke-width:1.99842525;stroke-linecap:butt;stroke-linejoin:miter;stroke-miterlimit:4;stroke-dasharray:none;stroke-dashoffset:0;stroke-opacity:1"
       d="m 604.81392,420.1175 c 10.0251,7.5218 -0.42117,0.19883 -5.50944,-1.83648"
       id="path4392"
       inkscape:connector-curvature="0" />
    <path
       style="opacity:1;fill:#ffffff;fill-opacity:1;stroke:none;stroke-width:0.70866144;stroke-linecap:butt;stroke-linejoin:miter;stroke-miterlimit:4;stroke-dasharray:none;stroke-dashoffset:0;stroke-opacity:1"
       d="m 75.67814,110.08942 c -18.555476,1.01275 -35.815547,7.45483 -37.475311,27.3377 -1.593672,19.09115 -1.875899,35.41916 13.750436,46.55399 34.869534,24.84694 63.378415,10.64031 102.969865,7.16461 16.83758,-1.47816 34.23623,2.8172 47.71097,-8.65387 7.81681,-6.65445 9.75345,-13.80417 13.37094,-23.04679 12.66201,-32.35114 2.16578,-46.28185 -33.13945,-48.55768 -12.52733,-0.80753 -26.31185,-0.0856 -38.89373,0.62064 -22.02127,1.23605 -48.627422,-2.49198 -68.29372,-1.4186 z"
       id="path8611"
       inkscape:connector-curvature="0"
       sodipodi:nodetypes="sssssssss" />
    <path
       style="opacity:1;fill:#ffffff;fill-opacity:1;stroke:none;stroke-width:0.70866144;stroke-linecap:butt;stroke-linejoin:miter;stroke-miterlimit:4;stroke-dasharray:none;stroke-dashoffset:0;stroke-opacity:1"
       d="m 249.94269,221.69054 c -13.81195,-0.16934 -30.25379,4.48037 -40.43555,12.41916 -9.46514,7.38003 -18.22255,25.11914 -22.74253,35.23903 -23.64632,52.94227 134.29891,83.53564 149.35073,11.93513 2.25342,-10.71936 -5.74571,-22.27054 -15.64543,-29.62342 -9.90844,-7.35935 -13.29157,-18.65956 -25.03939,-24.08704 -15.23554,-7.03883 -29.8271,-5.69084 -45.48783,-5.88286 z"
       id="path8615"
       inkscape:connector-curvature="0"
       sodipodi:nodetypes="sssssss" />
    <path
       style="opacity:1;fill:#ffffff;fill-opacity:1;stroke:none;stroke-width:0.70866144;stroke-linecap:butt;stroke-linejoin:miter;stroke-miterlimit:4;stroke-dasharray:none;stroke-dashoffset:0;stroke-opacity:1"
       d="m 401.26739,403.01527 c -38.72837,-4.88469 -38.14057,14.54509 -32.15359,40.86026 3.15642,13.8737 1.94992,27.23552 4.28348,41.12504 3.25153,19.35345 -8.79189,36.95132 10.99456,53.0987 14.29273,11.66402 58.15853,12.44549 71.18461,0.41801 18.28947,-16.88737 10.96036,-26.76613 14.99187,-48.94686 9.72087,-53.48287 24.79058,-80.6169 -20.093,-86.30491 -12.48332,-1.58199 -36.64257,1.33457 -49.20793,-0.25024 z"
       id="path8617"
       inkscape:connector-curvature="0"
       sodipodi:nodetypes="ssssssss" />
    <path
       style="opacity:1;fill:#ffffff;fill-opacity:1;stroke:none;stroke-width:0.70866144;stroke-linecap:butt;stroke-linejoin:miter;stroke-miterlimit:4;stroke-dasharray:none;stroke-dashoffset:0;stroke-opacity:1"
       d="m 116.7636,675.23962 c -27.828572,-7.14563 -47.437602,1.08648 -57.953094,22.58189 -8.780767,17.94934 2.461887,37.33859 17.856583,45.31493 35.909161,18.60532 147.881431,13.36676 175.711951,-15.0385 4.40711,-4.49811 1.01038,-12.09587 -0.15831,-17.19053 -6.73257,-29.3489 -18.74354,-28.48219 -53.11579,-30.77827 -12.71795,-0.84956 -25.43874,-1.1747 -38.09137,-2.6249 -14.94504,-1.71296 -30.98345,1.14186 -44.24997,-2.26462 z"
       id="path8619"
       inkscape:connector-curvature="0"
       sodipodi:nodetypes="ssssssss" />
    <path
       sodipodi:nodetypes="cc"
       inkscape:connector-curvature="0"
       id="path4354"
       d="m 442.70277,209.97933 -12.64382,11.76022"
       style="display:inline;opacity:1;fill:none;fill-opacity:1;stroke:#000000;stroke-width:0.7086615;stroke-linecap:butt;stroke-linejoin:miter;stroke-miterlimit:4;stroke-dasharray:none;stroke-dashoffset:0;stroke-opacity:1;marker-end:" />
    <path
       style="display:inline;opacity:1;fill:none;fill-opacity:1;stroke:#000000;stroke-width:0.7086615;stroke-linecap:butt;stroke-linejoin:miter;stroke-miterlimit:4;stroke-dasharray:none;stroke-dashoffset:0;stroke-opacity:1;marker-end:"
       d="m 155.84761,543.3577 -6.19994,5.63408"
       id="path4416"
       inkscape:connector-curvature="0"
       sodipodi:nodetypes="cc" />
    <path
       style="display:inline;opacity:1;fill:none;fill-opacity:1;stroke:#000000;stroke-width:0.7086615;stroke-linecap:butt;stroke-linejoin:miter;stroke-miterlimit:4;stroke-dasharray:none;stroke-dashoffset:0;stroke-opacity:1;marker-end:url(#marker6397);marker-mid:"
       d="m 49.739352,385.26635 -7.20704,24.9154"
       id="path7987"
       inkscape:connector-curvature="0"
       sodipodi:nodetypes="cc" />
    <path
       sodipodi:nodetypes="cc"
       inkscape:connector-curvature="0"
       id="path4356"
       d="m 51.617839,452.48951 -7.20704,24.9154"
       style="display:inline;opacity:1;fill:none;fill-opacity:1;stroke:#000000;stroke-width:0.7086615;stroke-linecap:butt;stroke-linejoin:miter;stroke-miterlimit:4;stroke-dasharray:none;stroke-dashoffset:0;stroke-opacity:1;marker-end:url(#marker7989);marker-mid:" />
  </g>
  <g
     transform="translate(0,-70.866142)"
     inkscape:label="text"
     id="layer3"
     inkscape:groupmode="layer"
     style="display:inline" />
  <g
     sodipodi:insensitive="true"
     inkscape:groupmode="layer"
     inkscape:label="printing marks"
     id="printing-marks"
     style="display:inline">
    <g
       inkscape:label="CropMarks"
       id="CropMarks">
      <path
         style="fill:none;stroke:#000000;stroke-width:0.25"
         id="cropTL1"
         d="M 0,-7.0866142 0,-42.519685"
         inkscape:connector-curvature="0" />
      <path
         style="fill:none;stroke:#000000;stroke-width:0.25"
         id="cropTL2"
         d="M -7.0866142,0 -42.519685,0"
         inkscape:connector-curvature="0" />
      <path
         style="fill:none;stroke:#000000;stroke-width:0.25"
         id="cropTR1"
         d="m 524.40945,-7.0866142 0,-35.4330708"
         inkscape:connector-curvature="0" />
      <path
         style="fill:none;stroke:#000000;stroke-width:0.25"
         id="cropTR2"
         d="m 531.49606,0 35.43307,0"
         inkscape:connector-curvature="0" />
      <path
         style="fill:none;stroke:#000000;stroke-width:0.25"
         id="cropBL1"
         d="m 0,751.1811 0,35.43307"
         inkscape:connector-curvature="0" />
      <path
         style="fill:none;stroke:#000000;stroke-width:0.25"
         id="cropBL2"
         d="m -7.0866142,744.09449 -35.4330708,0"
         inkscape:connector-curvature="0" />
      <path
         style="fill:none;stroke:#000000;stroke-width:0.25"
         id="cropBR1"
         d="m 524.40945,751.1811 0,35.43307"
         inkscape:connector-curvature="0" />
      <path
         style="fill:none;stroke:#000000;stroke-width:0.25"
         id="cropBR2"
         d="m 531.49606,744.09449 35.43307,0"
         inkscape:connector-curvature="0" />
    </g>
    <g
       inkscape:label="RegistrationMarks"
       id="RegistrationMarks">
      <g
         id="regMarkL">
        <path
           id="path3448"
           transform="translate(-35.433071,318.89764)"
           style="fill:#000000;fill-opacity:1;stroke:none"
           d="m 0,17.716535 -3.5433071,0 L 14.173228,0 -3.5433071,-17.716535 0,-17.716535 17.716535,0 0,17.716535 Z"
           inkscape:connector-curvature="0" />
        <path
           id="path3450"
           transform="translate(-35.433071,318.89764)"
           style="fill:#00ffff;fill-opacity:1;stroke:none"
           d="m -3.5433071,17.716535 -3.5433071,0 L 10.629921,0 -7.0866142,-17.716535 l 3.5433071,0 L 14.173228,0 -3.5433071,17.716535 Z"
           inkscape:connector-curvature="0" />
        <path
           id="path3452"
           transform="translate(-35.433071,318.89764)"
           style="fill:#ff00ff;fill-opacity:1;stroke:none"
           d="m -7.0866142,17.716535 -3.5433068,0 L 7.0866142,0 -10.629921,-17.716535 l 3.5433068,0 L 10.629921,0 -7.0866142,17.716535 Z"
           inkscape:connector-curvature="0" />
        <path
           id="path3454"
           transform="translate(-35.433071,318.89764)"
           style="fill:#ffff00;fill-opacity:1;stroke:none"
           d="m -10.629921,17.716535 -3.543307,0 L 3.5433071,0 -14.173228,-17.716535 l 3.543307,0 L 7.0866142,0 -10.629921,17.716535 Z"
           inkscape:connector-curvature="0" />
        <path
           id="path3456"
           transform="translate(-35.433071,318.89764)"
           style="fill:#000000;fill-opacity:1;stroke:none"
           d="m -14.173228,17.716535 -3.543307,0 L 0,0 l -17.716535,-17.716535 3.543307,0 L 3.5433071,0 -14.173228,17.716535 Z"
           inkscape:connector-curvature="0" />
      </g>
      <g
         id="regMarkR">
        <path
           id="path3459"
           transform="matrix(-1,0,0,-1,559.84252,318.89764)"
           style="fill:#000000;fill-opacity:1;stroke:none"
           d="m 0,17.716535 -3.5433071,0 L 14.173228,0 -3.5433071,-17.716535 0,-17.716535 17.716535,0 0,17.716535 Z"
           inkscape:connector-curvature="0" />
        <path
           id="path3461"
           transform="matrix(-1,0,0,-1,559.84252,318.89764)"
           style="fill:#00ffff;fill-opacity:1;stroke:none"
           d="m -3.5433071,17.716535 -3.5433071,0 L 10.629921,0 -7.0866142,-17.716535 l 3.5433071,0 L 14.173228,0 -3.5433071,17.716535 Z"
           inkscape:connector-curvature="0" />
        <path
           id="path3463"
           transform="matrix(-1,0,0,-1,559.84252,318.89764)"
           style="fill:#ff00ff;fill-opacity:1;stroke:none"
           d="m -7.0866142,17.716535 -3.5433068,0 L 7.0866142,0 -10.629921,-17.716535 l 3.5433068,0 L 10.629921,0 -7.0866142,17.716535 Z"
           inkscape:connector-curvature="0" />
        <path
           id="path3465"
           transform="matrix(-1,0,0,-1,559.84252,318.89764)"
           style="fill:#ffff00;fill-opacity:1;stroke:none"
           d="m -10.629921,17.716535 -3.543307,0 L 3.5433071,0 -14.173228,-17.716535 l 3.543307,0 L 7.0866142,0 -10.629921,17.716535 Z"
           inkscape:connector-curvature="0" />
        <path
           id="path3467"
           transform="matrix(-1,0,0,-1,559.84252,318.89764)"
           style="fill:#000000;fill-opacity:1;stroke:none"
           d="m -14.173228,17.716535 -3.543307,0 L 0,0 l -17.716535,-17.716535 3.543307,0 L 3.5433071,0 -14.173228,17.716535 Z"
           inkscape:connector-curvature="0" />
      </g>
      <g
         id="regMarkT">
        <path
           id="path3470"
           transform="matrix(0,1,-1,0,262.20472,-35.433071)"
           style="fill:#000000;fill-opacity:1;stroke:none"
           d="m 0,17.716535 -3.5433071,0 L 14.173228,0 -3.5433071,-17.716535 0,-17.716535 17.716535,0 0,17.716535 Z"
           inkscape:connector-curvature="0" />
        <path
           id="path3472"
           transform="matrix(0,1,-1,0,262.20472,-35.433071)"
           style="fill:#00ffff;fill-opacity:1;stroke:none"
           d="m -3.5433071,17.716535 -3.5433071,0 L 10.629921,0 -7.0866142,-17.716535 l 3.5433071,0 L 14.173228,0 -3.5433071,17.716535 Z"
           inkscape:connector-curvature="0" />
        <path
           id="path3474"
           transform="matrix(0,1,-1,0,262.20472,-35.433071)"
           style="fill:#ff00ff;fill-opacity:1;stroke:none"
           d="m -7.0866142,17.716535 -3.5433068,0 L 7.0866142,0 -10.629921,-17.716535 l 3.5433068,0 L 10.629921,0 -7.0866142,17.716535 Z"
           inkscape:connector-curvature="0" />
        <path
           id="path3476"
           transform="matrix(0,1,-1,0,262.20472,-35.433071)"
           style="fill:#ffff00;fill-opacity:1;stroke:none"
           d="m -10.629921,17.716535 -3.543307,0 L 3.5433071,0 -14.173228,-17.716535 l 3.543307,0 L 7.0866142,0 -10.629921,17.716535 Z"
           inkscape:connector-curvature="0" />
        <path
           id="path3478"
           transform="matrix(0,1,-1,0,262.20472,-35.433071)"
           style="fill:#000000;fill-opacity:1;stroke:none"
           d="m -14.173228,17.716535 -3.543307,0 L 0,0 l -17.716535,-17.716535 3.543307,0 L 3.5433071,0 -14.173228,17.716535 Z"
           inkscape:connector-curvature="0" />
      </g>
      <g
         id="regMarkB">
        <path
           id="path3481"
           transform="matrix(0,-1,1,0,262.20472,779.52756)"
           style="fill:#000000;fill-opacity:1;stroke:none"
           d="m 0,17.716535 -3.5433071,0 L 14.173228,0 -3.5433071,-17.716535 0,-17.716535 17.716535,0 0,17.716535 Z"
           inkscape:connector-curvature="0" />
        <path
           id="path3483"
           transform="matrix(0,-1,1,0,262.20472,779.52756)"
           style="fill:#00ffff;fill-opacity:1;stroke:none"
           d="m -3.5433071,17.716535 -3.5433071,0 L 10.629921,0 -7.0866142,-17.716535 l 3.5433071,0 L 14.173228,0 -3.5433071,17.716535 Z"
           inkscape:connector-curvature="0" />
        <path
           id="path3485"
           transform="matrix(0,-1,1,0,262.20472,779.52756)"
           style="fill:#ff00ff;fill-opacity:1;stroke:none"
           d="m -7.0866142,17.716535 -3.5433068,0 L 7.0866142,0 -10.629921,-17.716535 l 3.5433068,0 L 10.629921,0 -7.0866142,17.716535 Z"
           inkscape:connector-curvature="0" />
        <path
           id="path3487"
           transform="matrix(0,-1,1,0,262.20472,779.52756)"
           style="fill:#ffff00;fill-opacity:1;stroke:none"
           d="m -10.629921,17.716535 -3.543307,0 L 3.5433071,0 -14.173228,-17.716535 l 3.543307,0 L 7.0866142,0 -10.629921,17.716535 Z"
           inkscape:connector-curvature="0" />
        <path
           id="path3489"
           transform="matrix(0,-1,1,0,262.20472,779.52756)"
           style="fill:#000000;fill-opacity:1;stroke:none"
           d="m -14.173228,17.716535 -3.543307,0 L 0,0 l -17.716535,-17.716535 3.543307,0 L 3.5433071,0 -14.173228,17.716535 Z"
           inkscape:connector-curvature="0" />
      </g>
    </g>
  </g>
</svg>
